<svg width="21" height="13" viewBox="0 0 21 13" fill="none" xmlns="http://www.w3.org/2000/svg">
<g clip-path="url(#clip0_9_93)">
<rect width="21" height="13" rx="2" fill="black"/>
<path fill-rule="evenodd" clip-rule="evenodd" d="M1.92091 9.63947H4.82618V10.3209H1.92091V9.63947ZM14.8066 7.4789C15.0688 7.47927 15.3271 7.53965 15.5607 7.65514C15.7944 7.77063 15.9968 7.938 16.1516 8.14369C16.3629 7.86762 16.6582 7.66329 16.9956 7.55975C17.3331 7.45621 17.6955 7.45871 18.0314 7.56691C18.3673 7.67511 18.6596 7.8835 18.8668 8.16248C19.074 8.44145 19.1855 8.77682 19.1855 9.12094C19.1855 9.46506 19.074 9.80043 18.8668 10.0794C18.6596 10.3584 18.3673 10.5668 18.0314 10.675C17.6955 10.7832 17.3331 10.7857 16.9956 10.6821C16.6582 10.5786 16.3629 10.3743 16.1516 10.0982C15.9793 10.3207 15.7514 10.4967 15.4895 10.6095C15.2276 10.7223 14.9405 10.7682 14.6552 10.7429C14.37 10.7175 14.0961 10.6217 13.8596 10.4646C13.6231 10.3074 13.4318 10.0941 13.3039 9.84491C13.1759 9.59571 13.1155 9.31884 13.1284 9.04058C13.1413 8.76231 13.2271 8.49186 13.3776 8.25487C13.5282 8.01788 13.7384 7.82221 13.9885 7.68641C14.2386 7.55061 14.5202 7.47919 14.8066 7.4789ZM19.8447 12.3468C19.9724 12.3444 20.0944 12.2948 20.1859 12.208C20.2773 12.1213 20.3313 12.0039 20.3369 11.8798V7.77324V3.66666H0.666512V11.8798C0.664432 11.9417 0.675843 12.0033 0.699996 12.0606C0.724149 12.1179 0.760496 12.1696 0.806649 12.2122C0.897136 12.3011 1.01988 12.3518 1.14845 12.3535L19.8447 12.3468ZM1.15186 12.9967C1.00019 12.9978 0.849866 12.9689 0.710027 12.9117C0.570188 12.8546 0.443749 12.7704 0.338387 12.6643C0.22972 12.5618 0.143435 12.4391 0.084704 12.3035C0.0259726 12.1678 -0.00399711 12.022 -0.00340949 11.8748V1.12017C-0.00386361 0.972663 0.0257335 0.82653 0.0836729 0.690207C0.141612 0.553885 0.226746 0.430075 0.334159 0.325926C0.441572 0.221776 0.569135 0.139351 0.709484 0.0834098C0.849833 0.0274682 1.00019 -0.000881756 1.15186 -3.07103e-06H19.8447C20.1505 -4.37261e-06 20.4439 0.117907 20.6604 0.327886C20.877 0.537864 20.9991 0.822777 21 1.12017V11.8798C20.9996 12.0269 20.9692 12.1724 20.9105 12.3079C20.8519 12.4434 20.7661 12.5662 20.6582 12.6693C20.442 12.88 20.1491 12.9994 19.843 13.0017C13.6064 13.0017 7.37541 13.0017 1.15015 13.0017L1.15186 12.9967ZM0.666512 2.41984H20.3369V1.11851C20.3368 1.05617 20.3235 0.994527 20.2979 0.937364C20.2723 0.880201 20.235 0.828729 20.1882 0.786113C20.1441 0.741075 20.0911 0.705083 20.0324 0.680252C19.9737 0.655421 19.9104 0.642253 19.8464 0.641521H1.15186C1.08784 0.642159 1.0246 0.655285 0.965894 0.680122C0.907183 0.704959 0.854195 0.741 0.810067 0.786113C0.764912 0.829497 0.729226 0.881299 0.705146 0.938414C0.681066 0.99553 0.669089 1.05678 0.66993 1.11851V2.41984H0.666512ZM6.16773 9.63947H11.0024V10.3209H6.16773V9.63947Z" fill="white"/>
</g>
<defs>
<clipPath id="clip0_9_93">
<rect width="21" height="13" fill="white"/>
</clipPath>
</defs>
</svg>
