<svg width="22" height="22" viewBox="0 0 22 22" fill="none" xmlns="http://www.w3.org/2000/svg">
<circle cx="11" cy="11" r="11" fill="#E7EAEB"/>
<g clip-path="url(#clip0_38_18)">
<path d="M15.9518 11.0127C15.9576 10.8779 16.0154 10.7506 16.1131 10.6573C16.2107 10.564 16.3407 10.5119 16.4759 10.5119C16.6111 10.5119 16.7411 10.564 16.8387 10.6573C16.9364 10.7506 16.9942 10.8779 17 11.0127C16.9999 12.2016 16.6449 13.3636 15.9804 14.3505C15.3159 15.3374 14.3719 16.1045 13.2688 16.554C12.1657 17.0035 10.9534 17.1151 9.78649 16.8745C8.61958 16.6339 7.55089 16.0521 6.71666 15.2031V16.4092C6.71666 16.548 6.66139 16.6811 6.56301 16.7793C6.46464 16.8775 6.3312 16.9326 6.19207 16.9326C6.05294 16.9326 5.91951 16.8775 5.82113 16.7793C5.72275 16.6811 5.66748 16.548 5.66748 16.4092V13.7217C5.66877 13.5837 5.72461 13.4518 5.82285 13.3547C5.92109 13.2576 6.05379 13.2031 6.19207 13.2031H8.91485C8.98558 13.2001 9.0562 13.2113 9.12245 13.2363C9.18871 13.2612 9.24922 13.2992 9.30035 13.348C9.35148 13.3969 9.39217 13.4556 9.41997 13.5206C9.44777 13.5855 9.4621 13.6554 9.4621 13.7261C9.4621 13.7967 9.44777 13.8666 9.41997 13.9316C9.39217 13.9966 9.35148 14.0553 9.30035 14.1041C9.24922 14.153 9.18871 14.191 9.12245 14.2159C9.0562 14.2408 8.98558 14.2521 8.91485 14.249H7.25104C7.91175 15.0112 8.79021 15.5536 9.76863 15.8035C10.747 16.0533 11.7786 15.9988 12.7251 15.647C13.6715 15.2953 14.4876 14.6632 15.0638 13.8356C15.64 13.008 15.9488 12.0243 15.9489 11.0166L15.9518 11.0127ZM15.4331 5.52344C15.43 5.45287 15.4413 5.3824 15.4663 5.3163C15.4912 5.25019 15.5293 5.18981 15.5783 5.13879C15.6273 5.08777 15.6861 5.04717 15.7512 5.01944C15.8163 4.9917 15.8864 4.9774 15.9572 4.9774C16.028 4.9774 16.098 4.9917 16.1632 5.01944C16.2283 5.04717 16.2871 5.08777 16.336 5.13879C16.385 5.18981 16.4231 5.25019 16.4481 5.3163C16.473 5.3824 16.4843 5.45287 16.4813 5.52344V8.23633C16.481 8.37415 16.4263 8.5063 16.329 8.60412C16.2317 8.70193 16.0997 8.75751 15.9616 8.7588H13.2643C13.1935 8.76185 13.1229 8.75058 13.0567 8.72567C12.9904 8.70077 12.9299 8.66274 12.8788 8.61388C12.8276 8.56502 12.7869 8.50634 12.7591 8.44137C12.7313 8.3764 12.717 8.30649 12.717 8.23585C12.717 8.1652 12.7313 8.09529 12.7591 8.03032C12.7869 7.96536 12.8276 7.90667 12.8788 7.85781C12.9299 7.80895 12.9904 7.77092 13.0567 7.74602C13.1229 7.72111 13.1935 7.70985 13.2643 7.7129H14.6893C14.0201 6.96752 13.1399 6.44243 12.1652 6.20709C11.1904 5.97175 10.167 6.03725 9.23038 6.39492C8.29374 6.7526 7.48801 7.3856 6.91979 8.21017C6.35157 9.03474 6.04763 10.012 6.0482 11.0127C6.05126 11.0833 6.03997 11.1537 6.01501 11.2198C5.99005 11.286 5.95194 11.3463 5.90297 11.3974C5.854 11.4484 5.79519 11.489 5.73008 11.5167C5.66496 11.5444 5.5949 11.5587 5.5241 11.5587C5.4533 11.5587 5.38324 11.5444 5.31813 11.5167C5.25302 11.489 5.1942 11.4484 5.14524 11.3974C5.09627 11.3463 5.05816 11.286 5.0332 11.2198C5.00824 11.1537 4.99694 11.0833 5 11.0127C5.00056 9.9705 5.27376 8.94649 5.79257 8.04194C6.31139 7.13739 7.05785 6.38364 7.95815 5.85522C8.85844 5.32681 9.88138 5.04203 10.9258 5.02906C11.9702 5.01609 12.9999 5.27537 13.9131 5.78126C14.481 6.09664 14.9942 6.50124 15.4331 6.9795V5.52344Z" fill="#4F008C"/>
<path d="M11 9.5V11.75L12.5 12.5" stroke="#03BB86" stroke-linecap="round" stroke-linejoin="round"/>
</g>
<defs>
<clipPath id="clip0_38_18">
<rect width="12" height="12" fill="white" transform="translate(5 5)"/>
</clipPath>
</defs>
</svg>
