<svg width="21" height="21" viewBox="0 0 21 21" fill="none" xmlns="http://www.w3.org/2000/svg">
<rect width="21" height="21" rx="10.5" fill="#4F008C"/>
<path d="M14.9 7H6.1C5.49249 7 5 7.56711 5 8.26667V13.3333C5 14.0329 5.49249 14.6 6.1 14.6H14.9C15.5075 14.6 16 14.0329 16 13.3333V8.26667C16 7.56711 15.5075 7 14.9 7Z" stroke="white" stroke-linecap="round" stroke-linejoin="round"/>
<path d="M10.5 12.0667C11.1075 12.0667 11.6 11.4996 11.6 10.8C11.6 10.1004 11.1075 9.53334 10.5 9.53334C9.8925 9.53334 9.40001 10.1004 9.40001 10.8C9.40001 11.4996 9.8925 12.0667 10.5 12.0667Z" stroke="white" stroke-linecap="round" stroke-linejoin="round"/>
<path d="M7.2 10.8H7.2055M13.8 10.8H13.8055" stroke="white" stroke-linecap="round" stroke-linejoin="round"/>
</svg>
