<svg width="21" height="21" viewBox="0 0 21 21" fill="none" xmlns="http://www.w3.org/2000/svg">
<rect width="21" height="21" rx="10.5" fill="#4BCED9"/>
<path d="M13.9512 14.9113L12.8625 9.95189L14.9794 7.83505C15.8866 6.92783 16.189 5.71821 15.8866 5.1134C15.2818 4.811 14.0722 5.1134 13.1649 6.02062L11.0481 8.13746L6.08866 7.0488C5.78625 6.98832 5.54433 7.10928 5.42337 7.3512L5.24192 7.65361C5.12096 7.95601 5.18144 8.25842 5.42337 8.43986L8.62887 10.5567L7.41924 12.3711H5.60481L5 12.9759L6.81443 14.1856L8.02406 16L8.62887 15.3952V13.5808L10.4433 12.3711L12.5601 15.5766C12.7416 15.8186 13.044 15.879 13.3464 15.7581L13.6488 15.6371C13.8907 15.4557 14.0117 15.2137 13.9512 14.9113Z" stroke="white" stroke-linecap="round" stroke-linejoin="round"/>
</svg>
