<svg width="21" height="21" viewBox="0 0 21 21" fill="none" xmlns="http://www.w3.org/2000/svg">
<rect width="21" height="21" rx="10.5" fill="#F66830"/>
<g clip-path="url(#clip0_17_13)">
<path fill-rule="evenodd" clip-rule="evenodd" d="M9.40083 5C8.79364 5 8.30166 5.47124 8.30166 6.05284V7.10518H6.65343C6.43693 7.10518 6.22256 7.14604 6.02255 7.22541C5.82255 7.30478 5.64082 7.42112 5.48776 7.56777C5.3347 7.71442 5.21331 7.88852 5.13051 8.08013C5.0477 8.27173 5.00512 8.47708 5.00519 8.68445V8.90068L5 8.90714L5.00519 8.91162V15H14.3466C14.7836 14.9999 15.2027 14.8335 15.5117 14.5374C15.8207 14.2414 15.9943 13.8399 15.9943 13.4212V8.91112L16 8.90615L15.9948 8.90018V8.68395C15.9949 8.47654 15.9523 8.27115 15.8694 8.07951C15.7866 7.88788 15.6652 7.71376 15.5121 7.5671C15.3589 7.42044 15.1772 7.30411 14.9771 7.22477C14.777 7.14543 14.5626 7.10462 14.3461 7.10469H12.6978V6.05284C12.6978 5.47124 12.2058 5 11.5987 5H9.40083ZM11.5987 7.10518V6.05284H9.40083V7.10518H11.5987ZM6.10384 13.9477H14.3466C14.6502 13.9477 14.8962 13.712 14.8962 13.4207V9.79793L14.1265 10.4183C13.8294 10.6581 13.4533 10.7896 13.0647 10.7896H11.0496V11.8683H9.95093V10.7896H7.93527C7.54695 10.7896 7.1711 10.6583 6.87399 10.4188L6.10384 9.79743V13.9477ZM13.4181 9.61301L14.8448 8.46274C14.8007 8.37176 14.7304 8.29475 14.6421 8.24076C14.5538 8.18678 14.4513 8.15807 14.3466 8.15803H6.65291C6.43235 8.15803 6.24189 8.2828 6.1547 8.46274L7.58134 9.61351C7.67994 9.69305 7.80553 9.73679 7.93475 9.73679H13.0637C13.1934 9.73679 13.318 9.69305 13.4176 9.61351L13.4181 9.61301Z" fill="white"/>
</g>
<defs>
<clipPath id="clip0_17_13">
<rect width="12" height="11" fill="white" transform="translate(5 5)"/>
</clipPath>
</defs>
</svg>
