<svg width="22" height="22" viewBox="0 0 22 22" fill="none" xmlns="http://www.w3.org/2000/svg">
<circle cx="11" cy="11" r="11" fill="#E7EAEB"/>
<path d="M14.1 16.7V15.4C14.1 14.7104 13.8261 14.0491 13.3385 13.5615C12.8509 13.0739 12.1896 12.8 11.5 12.8H7.6C6.91043 12.8 6.24911 13.0739 5.76152 13.5615C5.27393 14.0491 5 14.7104 5 15.4V16.7" stroke="#4F008C" stroke-linecap="round" stroke-linejoin="round"/>
<path d="M14.1 5.08321C14.6575 5.22775 15.1513 5.55333 15.5038 6.00885C15.8562 6.46436 16.0475 7.02403 16.0475 7.6C16.0475 8.17597 15.8562 8.73564 15.5038 9.19116C15.1513 9.64668 14.6575 9.97226 14.1 10.1168" stroke="#03BB86" stroke-linecap="round" stroke-linejoin="round"/>
<path d="M18 16.7V15.4C17.9996 14.8239 17.8078 14.2643 17.4549 13.809C17.1019 13.3537 16.6078 13.0285 16.05 12.8845" stroke="#03BB86" stroke-linecap="round" stroke-linejoin="round"/>
<path d="M9.54995 10.2C10.9859 10.2 12.1499 9.03593 12.1499 7.6C12.1499 6.16406 10.9859 5 9.54995 5C8.11401 5 6.94995 6.16406 6.94995 7.6C6.94995 9.03593 8.11401 10.2 9.54995 10.2Z" stroke="#4F008C" stroke-linecap="round" stroke-linejoin="round"/>
</svg>
